{"title":"Countdown to Christmas (2002)","uid":9363433,"size":742770691,"categoryP":"video","categoryS":"movies","magnet":"?xt=urn:btih:7de46d9f6687a1fa0a73a3ffa7daaaef0a7a22b7&amp;dn=Countdown+to+Christmas+%282002%29&amp;tr=udp%3A%2F%2Ftracker.openbittorrent.com%3A80&amp;tr=udp%3A%2F%2Fopen.demonii.com%3A1337&amp;tr=udp%3A%2F%2Ftracker.coppersurfer.tk%3A6969&amp;tr=udp%3A%2F%2Fexodus.desync.com%3A6969","seeders":0,"leechers":0,"uploader":"7","files":-1,"time":1387372875,"description":"\nIMDB link\thttp://www.imdb.com/title/tt0406405/\n\nGeneral\nComplete name                            : Countdown to Christmas (2002).avi\nFormat                                   : AVI\nFormat/Info                              : Audio Video Interleave\nFile size                                : 708 MiB\nDuration                                 : 1h 33mn\nOverall bit rate mode                    : Variable\nOverall bit rate                         : 1 055 Kbps\nWriting application                      : VirtualDubMod 1.5.10.2 (build 2540/release)\nWriting library                          : VirtualDubMod build 2540/release\n\nVideo\nID                                       : 0\nFormat                                   : MPEG-4 Visual\nFormat profile                           : Advanced Simple@L5\nFormat settings, BVOP                    : 2\nFormat settings, QPel                    : No\nFormat settings, GMC                     : No warppoints\nFormat settings, Matrix                  : Default (H.263)\nMuxing mode                              : Packed bitstream\nCodec ID                                 : XVID\nCodec ID/Hint                            : XviD\nDuration                                 : 1h 33mn\nBit rate                                 : 963 Kbps\nWidth                                    : 704 pixels\nHeight                                   : 528 pixels\nDisplay aspect ratio                     : 4:3\nFrame rate                               : 25.000 fps\nColor space                              : YUV\nChroma subsampling                       : 4:2:0\nBit depth                                : 8 bits\nScan type                                : Progressive\nCompression mode                         : Lossy\nBits/(Pixel*Frame)                       : 0.104\nStream size                              : 647 MiB (91%)\nWriting library                          : XviD 1.1.2 (UTC 2006-11-01)\n\nAudio\nID                                       : 1\nFormat                                   : MPEG Audio\nFormat version                           : Version 1\nFormat profile                           : Layer 3\nMode                                     : Joint stereo\nMode extension                           : MS Stereo\nCodec ID                                 : 55\nCodec ID/Hint                            : MP3\nDuration                                 : 1h 33mn\nBit rate mode                            : Variable\nBit rate                                 : 79.2 Kbps\nMinimum bit rate                         : 32.0 Kbps\nChannel(s)                               : 2 channels\nSampling rate                            : 48.0 KHz\nCompression mode                         : Lossy\nStream size                              : 53.2 MiB (8%)\nAlignment                                : Aligned on interleaves\nInterleave, duration                     : 24 ms (0.60 video frame)\nInterleave, preload duration             : 414 ms\nWriting library                          : LAME3.97b\nEncoding settings                        : -m j -V 5 -q 3 -lowpass 16 --vbr-new -b 32\n &lt;a href=&quot;\nhttp://lookpic.com/O/i2/101/0cLaYlqi.jpeg&quot; rel=&quot;nofollow&quot; target=&quot;_NEW&quot;&gt;\nhttp://lookpic.com/O/i2/101/0cLaYlqi.jpeg&lt;/a&gt;","torrent":{"xt":"urn:btih:7de46d9f6687a1fa0a73a3ffa7daaaef0a7a22b7","amp;dn":"Countdown+to+Christmas+%282002%29","amp;tr":["udp%3A%2F%2Ftracker.openbittorrent.com%3A80","udp%3A%2F%2Fopen.demonii.com%3A1337","udp%3A%2F%2Ftracker.coppersurfer.tk%3A6969","udp%3A%2F%2Fexodus.desync.com%3A6969"],"infoHash":"7de46d9f6687a1fa0a73a3ffa7daaaef0a7a22b7","infoHashBuffer":{"type":"Buffer","data":[125,228,109,159,102,135,161,250,10,115,163,255,167,218,170,239,10,122,34,183]},"announce":[],"urlList":[]}}